# xmcd
#
# Track frame offsets:
#	150
#	17493
#	33100
#	49690
#	63785
#	77493
#	90678
#	109770
#	127310
#	144953
#	158655
#	169643
#	185223
#	196518
#	210125
#	226525
#	239513
#	255518
#
# Disc length: 3638 seconds
#
# Revision: 1
# Processed by: cddbd v1.5.2PL0 Copyright (c) Steve Scherf et al.
# Submitted via: audiograbber 1.83.01
#
DISCID=d50e3412
DTITLE=TR Dallas - The Very Best Of
DYEAR=1900
DGENRE=
TTITLE0=It's Hard To Be Humble
TTITLE1=Candlelight And Wine
TTITLE2=Daddy's Girl
TTITLE3=The Last One To Touch Me
TTITLE4=Big Tom Doesn't Play Here Anymore
TTITLE5=Whiskey Castles
TTITLE6=Rose Of Mooncoin
TTITLE7=Diane
TTITLE8=Momma Don't Let Your Babies Grow Up To Be Cowboys
TTITLE9=Everybody's Making It Big But Me
TTITLE10=Where The Three Counties Meet
TTITLE11=I Don't Work For A Living
TTITLE12=Faded Picture
TTITLE13=Cold Windy City Of Chicago
TTITLE14=The Diet Song
TTITLE15=Monday Morning Secretary
TTITLE16=Noreen Bawn
TTITLE17=Who Shot J.R. Ewing?
EXTD=
EXTT0=
EXTT1=
EXTT2=
EXTT3=
EXTT4=
EXTT5=
EXTT6=
EXTT7=
EXTT8=
EXTT9=
EXTT10=
EXTT11=
EXTT12=
EXTT13=
EXTT14=
EXTT15=
EXTT16=
EXTT17=
PLAYORDER=
